<mxfile host="app.diagrams.net" modified="2021-02-06T04:11:03.621Z" agent="5.0 (Macintosh; Intel Mac OS X 11_1_0) AppleWebKit/537.36 (KHTML, like Gecko) Chrome/88.0.4324.96 Safari/537.36" etag="macnAWOHMwO_DYV_gItP" version="14.2.7" type="github">
  <diagram id="C5RBs43oDa-KdzZeNtuy" name="Page-1">
    <mxGraphModel dx="1106" dy="616" grid="1" gridSize="10" guides="1" tooltips="1" connect="1" arrows="1" fold="1" page="1" pageScale="1" pageWidth="827" pageHeight="1169" math="0" shadow="0">
      <root>
        <mxCell id="WIyWlLk6GJQsqaUBKTNV-0" />
        <mxCell id="WIyWlLk6GJQsqaUBKTNV-1" parent="WIyWlLk6GJQsqaUBKTNV-0" />
        <mxCell id="Lo0D1g_yETABjiU6Osd3-0" value="Constructor()" style="rounded=0;whiteSpace=wrap;html=1;" vertex="1" parent="WIyWlLk6GJQsqaUBKTNV-1">
          <mxGeometry x="250" y="100" width="240" height="110" as="geometry" />
        </mxCell>
        <mxCell id="Lo0D1g_yETABjiU6Osd3-1" value="&lt;font style=&quot;font-size: 24px&quot;&gt;MasterForm&lt;/font&gt;" style="text;html=1;strokeColor=none;fillColor=none;align=center;verticalAlign=middle;whiteSpace=wrap;rounded=0;" vertex="1" parent="WIyWlLk6GJQsqaUBKTNV-1">
          <mxGeometry x="296.25" y="10" width="147.5" height="110" as="geometry" />
        </mxCell>
        <mxCell id="Lo0D1g_yETABjiU6Osd3-2" value="setState()" style="rounded=0;whiteSpace=wrap;html=1;" vertex="1" parent="WIyWlLk6GJQsqaUBKTNV-1">
          <mxGeometry x="285" y="220" width="170" height="90" as="geometry" />
        </mxCell>
        <mxCell id="Lo0D1g_yETABjiU6Osd3-3" value="Render()" style="rounded=0;whiteSpace=wrap;html=1;" vertex="1" parent="WIyWlLk6GJQsqaUBKTNV-1">
          <mxGeometry x="295" y="330" width="150" height="60" as="geometry" />
        </mxCell>
        <mxCell id="Lo0D1g_yETABjiU6Osd3-4" value="" style="rounded=1;whiteSpace=wrap;html=1;" vertex="1" parent="WIyWlLk6GJQsqaUBKTNV-1">
          <mxGeometry x="80" y="465" width="180" height="120" as="geometry" />
        </mxCell>
        <mxCell id="Lo0D1g_yETABjiU6Osd3-5" value="" style="rounded=1;whiteSpace=wrap;html=1;" vertex="1" parent="WIyWlLk6GJQsqaUBKTNV-1">
          <mxGeometry x="270" y="465" width="180" height="120" as="geometry" />
        </mxCell>
        <mxCell id="Lo0D1g_yETABjiU6Osd3-6" value="" style="rounded=1;whiteSpace=wrap;html=1;" vertex="1" parent="WIyWlLk6GJQsqaUBKTNV-1">
          <mxGeometry x="480" y="465" width="180" height="120" as="geometry" />
        </mxCell>
        <mxCell id="Lo0D1g_yETABjiU6Osd3-12" value="" style="edgeStyle=segmentEdgeStyle;endArrow=classic;html=1;" edge="1" parent="WIyWlLk6GJQsqaUBKTNV-1">
          <mxGeometry width="50" height="50" relative="1" as="geometry">
            <mxPoint x="360" y="640" as="sourcePoint" />
            <mxPoint x="530" y="140" as="targetPoint" />
            <Array as="points">
              <mxPoint x="750" y="640" />
            </Array>
          </mxGeometry>
        </mxCell>
        <mxCell id="Lo0D1g_yETABjiU6Osd3-13" value="" style="endArrow=none;html=1;exitX=0.5;exitY=1;exitDx=0;exitDy=0;" edge="1" parent="WIyWlLk6GJQsqaUBKTNV-1" source="Lo0D1g_yETABjiU6Osd3-5">
          <mxGeometry width="50" height="50" relative="1" as="geometry">
            <mxPoint x="350" y="430" as="sourcePoint" />
            <mxPoint x="360" y="640" as="targetPoint" />
          </mxGeometry>
        </mxCell>
        <mxCell id="Lo0D1g_yETABjiU6Osd3-14" value="" style="endArrow=none;html=1;entryX=0.5;entryY=1;entryDx=0;entryDy=0;" edge="1" parent="WIyWlLk6GJQsqaUBKTNV-1" target="Lo0D1g_yETABjiU6Osd3-4">
          <mxGeometry width="50" height="50" relative="1" as="geometry">
            <mxPoint x="360" y="640" as="sourcePoint" />
            <mxPoint x="150" y="610" as="targetPoint" />
          </mxGeometry>
        </mxCell>
        <mxCell id="Lo0D1g_yETABjiU6Osd3-15" value="" style="endArrow=none;html=1;entryX=0.5;entryY=1;entryDx=0;entryDy=0;" edge="1" parent="WIyWlLk6GJQsqaUBKTNV-1" target="Lo0D1g_yETABjiU6Osd3-6">
          <mxGeometry width="50" height="50" relative="1" as="geometry">
            <mxPoint x="360" y="640" as="sourcePoint" />
            <mxPoint x="410" y="590" as="targetPoint" />
          </mxGeometry>
        </mxCell>
        <mxCell id="Lo0D1g_yETABjiU6Osd3-16" value="Child components will send back user input to MasterForm" style="text;html=1;strokeColor=none;fillColor=none;align=center;verticalAlign=middle;whiteSpace=wrap;rounded=0;" vertex="1" parent="WIyWlLk6GJQsqaUBKTNV-1">
          <mxGeometry x="610" y="320" width="130" height="80" as="geometry" />
        </mxCell>
        <mxCell id="Lo0D1g_yETABjiU6Osd3-17" value="Send props bases states,render" style="text;html=1;strokeColor=none;fillColor=none;align=center;verticalAlign=middle;whiteSpace=wrap;rounded=0;" vertex="1" parent="WIyWlLk6GJQsqaUBKTNV-1">
          <mxGeometry x="394" y="400" width="96" height="60" as="geometry" />
        </mxCell>
        <mxCell id="Lo0D1g_yETABjiU6Osd3-18" value="" style="endArrow=classic;html=1;exitX=0.5;exitY=1;exitDx=0;exitDy=0;" edge="1" parent="WIyWlLk6GJQsqaUBKTNV-1" source="Lo0D1g_yETABjiU6Osd3-3">
          <mxGeometry width="50" height="50" relative="1" as="geometry">
            <mxPoint x="430" y="390" as="sourcePoint" />
            <mxPoint x="370" y="440" as="targetPoint" />
          </mxGeometry>
        </mxCell>
        <mxCell id="Lo0D1g_yETABjiU6Osd3-19" value="&lt;h1&gt;Step 1&lt;/h1&gt;&lt;p&gt;Username validation&lt;/p&gt;" style="text;html=1;strokeColor=none;fillColor=none;spacing=5;spacingTop=-20;whiteSpace=wrap;overflow=hidden;rounded=0;" vertex="1" parent="WIyWlLk6GJQsqaUBKTNV-1">
          <mxGeometry x="80" y="470" width="190" height="120" as="geometry" />
        </mxCell>
        <mxCell id="Lo0D1g_yETABjiU6Osd3-20" value="&lt;h1&gt;Step 2&lt;/h1&gt;&lt;p&gt;Password validation&lt;/p&gt;" style="text;html=1;strokeColor=none;fillColor=none;spacing=5;spacingTop=-20;whiteSpace=wrap;overflow=hidden;rounded=0;" vertex="1" parent="WIyWlLk6GJQsqaUBKTNV-1">
          <mxGeometry x="275" y="470" width="190" height="120" as="geometry" />
        </mxCell>
        <mxCell id="Lo0D1g_yETABjiU6Osd3-21" value="&lt;h1&gt;Step 3&lt;/h1&gt;&lt;p&gt;Country selection&lt;/p&gt;&lt;p&gt;Terms&amp;amp;Use validation&lt;/p&gt;&lt;p&gt;Subscribe to newsletter&lt;/p&gt;" style="text;html=1;strokeColor=none;fillColor=none;spacing=5;spacingTop=-20;whiteSpace=wrap;overflow=hidden;rounded=0;" vertex="1" parent="WIyWlLk6GJQsqaUBKTNV-1">
          <mxGeometry x="480" y="465" width="190" height="120" as="geometry" />
        </mxCell>
      </root>
    </mxGraphModel>
  </diagram>
</mxfile>
